Coordinates
version=1
nRows=12
nColumns=32
inDegrees=yes

Units are S.I. units (second, meters, Newtons, ...)
If the header above contains a line with 'inDegrees', this indicates whether rotational values are in degrees (yes) or radians (no).

endheader
time	pelvis_tilt	pelvis_list	pelvis_rotation	pelvis_tx	pelvis_ty	pelvis_tz	hip_flexion_r	hip_adduction_r	hip_rotation_r	knee_angle_r	knee_adduction_r	med_cond_adduction_r	lat_cond_adduction_r	patella_r_constrained_knee_angle	ankle_angle_r	subtalar_angle_r	mtp_angle_r	hip_flexion_l	hip_adduction_l	hip_rotation_l	knee_angle_l	knee_adduction_l	med_cond_adduction_l	lat_cond_adduction_l	patella_l_constrained_knee_angle	ankle_angle_l	subtalar_angle_l	mtp_angle_l	lumbar_extension	lumbar_bending	lumbar_rotation
      0.75500000	    -17.98603686	     -0.87375170	     -2.51651950	      0.17491034	      0.69515426	     -1.20109017	     67.30069415	    -35.08150645	    -10.11127035	    -79.24982952	      3.41647182	      0.00000000	      0.00000000	     -1.38317046	     19.89545006	     13.49716329	      0.00000000	     68.11161497	    -44.00875759	    -12.84312942	    -79.04160012	      3.01393918	      0.00000000	     -0.00000000	     -1.37953617	     16.91256249	     19.43652632	     -0.00000000	     -7.11553955	      1.43622247	      0.69206576
      0.76000000	    -18.02917113	     -0.96276763	     -2.58092044	      0.17469547	      0.69285107	     -1.20106478	     67.63490590	    -35.09372359	    -10.03834349	    -79.69114264	      3.40002458	     -0.00000000	     -0.00000000	     -1.39087282	     20.04465997	     13.51331811	     -0.00000000	     68.64239190	    -44.22954322	    -12.41518459	    -79.52164055	      3.05717573	     -0.00000000	     -0.00000000	     -1.38791445	     17.09169411	     19.44629352	     -0.00000000	     -7.24307114	      1.65454927	      0.93712457
      0.76500000	    -17.98327853	     -1.00015444	     -2.44666225	      0.17461205	      0.69074992	     -1.20147301	     67.83557387	    -35.41582508	    -10.10557643	    -80.14912887	      3.32247115	     -0.00000000	     -0.00000000	     -1.39886619	     20.22401262	     13.86805772	     -0.00000000	     69.08196094	    -44.19766762	    -12.14282991	    -79.97854119	      2.93022922	     -0.00000000	     -0.00000000	     -1.39588887	     17.19500081	     19.45052664	     -0.00000000	     -7.45049736	      1.55240491	      0.52159637
      0.77000000	    -17.94811472	     -0.99629985	     -2.51610054	      0.17450407	      0.68866610	     -1.20140820	     68.14300303	    -35.48104856	    -10.00124271	    -80.57374005	      3.22863440	      0.00000000	      0.00000000	     -1.40627705	     20.37581686	     13.96198054	      0.00000000	     69.38802834	    -44.39723844	    -12.02604787	    -80.42947381	      2.86425263	     -0.00000000	     -0.00000000	     -1.40375913	     17.34712140	     19.46244381	     -0.00000000	     -7.66289032	      1.53212155	      0.57290627
      0.77500000	    -17.82757623	     -0.88569536	     -2.48343378	      0.17450366	      0.68678330	     -1.20149599	     68.40927321	    -35.75512748	     -9.84989946	    -81.03522184	      3.13443261	      0.00000000	     -0.00000000	     -1.41433143	     20.57757287	     14.28515042	     -0.00000000	     69.50778520	    -44.43380281	    -12.14417987	    -80.85016641	      2.67497395	      0.00000000	      0.00000000	     -1.41110160	     17.43148528	     19.46912320	      0.00000000	     -7.97272571	      1.37502418	      0.52966312
      0.78000000	    -17.72675857	     -0.76591669	     -2.43429068	      0.17454407	      0.68486793	     -1.20166449	     68.69619751	    -36.05270650	     -9.61676074	    -81.48090958	      3.10533602	      0.00000000	      0.00000000	     -1.42211015	     20.76499418	     14.59899334	      0.00000000	     69.62659253	    -44.44755412	    -12.29014476	    -81.26442733	      2.49164019	     -0.00000000	     -0.00000000	     -1.41833182	     17.60382402	     19.47409917	     -0.00000000	     -8.25856218	      1.25468189	      0.47607581
      0.78500000	    -17.73597929	     -0.79882746	     -2.59105785	      0.17433961	      0.68261573	     -1.20140788	     69.07891310	    -35.96413439	     -9.52559806	    -81.90832909	      2.96599998	      0.00000000	      0.00000000	     -1.42957003	     20.87551839	     14.53492251	     -0.00000000	     70.02509903	    -44.75550390	    -12.06626205	    -81.74035489	      2.47392101	      0.00000000	      0.00000000	     -1.42663832	     17.76553589	     19.49119589	      0.00000000	     -8.41717328	      1.28749289	      0.69903600
      0.79000000	    -17.63024624	     -0.74235525	     -2.54539869	      0.17436140	      0.68065452	     -1.20158083	     69.31601296	    -36.21171343	     -9.47531928	    -82.34649368	      2.81124448	     -0.00000000	     -0.00000000	     -1.43721744	     21.05548023	     14.80773221	      0.00000000	     70.23687299	    -44.80961966	    -12.09075995	    -82.18450809	      2.29942127	     -0.00000000	     -0.00000000	     -1.43439026	     17.86025896	     19.49855241	     -0.00000000	     -8.71369707	      1.24318262	      0.64791532
      0.79500000	    -17.69790113	     -1.02652485	     -2.48063689	      0.17423185	      0.67812735	     -1.20194680	     69.46495066	    -36.29594555	     -9.81608653	    -82.78470443	      2.68858088	     -0.00000000	     -0.00000000	     -1.44486566	     21.23526394	     14.91853313	      0.00000000	     71.10128214	    -44.96255312	    -11.22498241	    -82.70757168	      2.36259428	     -0.00000000	      0.00000000	     -1.44351944	     18.04446703	     19.50325386	     -0.00000000	     -8.77254789	      1.71612206	      0.74402496
      0.80000000	    -17.65377034	     -1.12249145	     -2.40279161	      0.17419491	      0.67594336	     -1.20227902	     69.63862120	    -36.50184085	     -9.97169767	    -83.21997326	      2.52532618	      0.00000000	      0.00000000	     -1.45246254	     21.40644940	     15.10911195	      0.00000000	     71.59656462	    -45.02346274	    -10.86367515	    -83.18304951	      2.26807076	      0.00000000	      0.00000000	     -1.45181810	     18.17833735	     19.51013643	     -0.00000000	     -8.96302287	      1.70809582	      0.40787736
      0.80500000	    -17.54136976	     -1.12003684	     -2.41022138	      0.17421288	      0.67396088	     -1.20236140	     69.84755256	    -36.65397581	     -9.97694377	    -83.65464646	      2.34766429	     -0.00000000	     -0.00000000	     -1.46004902	     21.56345366	     15.27070219	     -0.00000000	     71.83207589	    -45.15717362	    -10.81096740	    -83.61800305	      2.10468145	      0.00000000	     -0.00000000	     -1.45940947	     18.33995542	     19.51736883	     -0.00000000	     -9.25149433	      1.68764477	      0.39014599
      0.81000000	    -17.49554180	     -1.14503625	     -2.34376989	      0.17424597	      0.67178419	     -1.20260124	     70.07487971	    -36.87620889	    -10.05544779	    -84.09744013	      2.16731023	      0.00000000	      0.00000000	     -1.46777722	     21.77144061	     15.48960391	      0.00000000	     72.23831505	    -45.21393655	    -10.62460496	    -84.08603576	      1.96021644	      0.00000000	      0.00000000	     -1.46757818	     18.43986578	     19.52467388	     -0.00000000	     -9.43230697	      1.62875477	      0.13651894
